<!--?xml version="1.0" encoding="UTF-8"?-->
<svg version="1.1" xmlns="http://www.w3.org/2000/svg" width="372" height="211">
<path d="M0 0 C0 0.99 0 1.98 0 3 C-0.95712891 3.19916016 -0.95712891 3.19916016 -1.93359375 3.40234375 C-3.17302734 3.66724609 -3.17302734 3.66724609 -4.4375 3.9375 C-5.67306641 4.19853516 -5.67306641 4.19853516 -6.93359375 4.46484375 C-8.97661204 4.80752994 -8.97661204 4.80752994 -10 6 C-11.60942269 17.20635055 -11.10404639 28.7133675 -11 40 C-7.99168504 37.01669981 -4.98689606 34.02990259 -1.98510742 31.04003906 C-0.96682708 30.02673848 0.05235474 29.01434288 1.07250977 28.00292969 C8.1924333 20.94827679 8.1924333 20.94827679 14.91796875 13.51953125 C21.39946993 5.95988247 29.12044564 1.47374568 39 0 C42.68478644 -0.20165498 46.31559831 -0.19241556 50 0 C49.28125 1.94921875 49.28125 1.94921875 48 4 C45.96875 4.58203125 45.96875 4.58203125 43.5 4.8125 C32.51381049 6.62561542 24.49573548 15.97107808 16.93676758 23.56225586 C15.29043777 25.20957549 13.62364102 26.83422216 11.95507812 28.45898438 C10.90235241 29.50651426 9.85087083 30.5552963 8.80078125 31.60546875 C8.30201981 32.08783493 7.80325836 32.57020111 7.28938293 33.06718445 C5.75370146 34.57650977 5.75370146 34.57650977 4 37 C4.03897569 40.32306751 5.86093276 42.48497979 7.80859375 45.08984375 C8.38585205 45.86779297 8.96311035 46.64574219 9.55786133 47.44726562 C10.17814209 48.26904297 10.79842285 49.09082031 11.4375 49.9375 C12.07131592 50.78634766 12.70513184 51.63519531 13.3581543 52.50976562 C15.2311009 55.0123955 17.11355825 57.50753241 19 60 C19.49338867 60.65371582 19.98677734 61.30743164 20.49511719 61.98095703 C29.45751443 73.83181806 38.83670831 85.16847965 49 96 C49.61617188 96.68191406 50.23234375 97.36382812 50.8671875 98.06640625 C57.13067742 104.76444451 65.90582063 111.29310496 75.19921875 112.37109375 C84.25591287 112.54350562 90.80297182 111.43209762 97.8046875 105.4609375 C104.70052449 98.22202404 106.58441328 89.73243427 106.47705078 79.97729492 C106.21546223 73.74424557 104.74669698 68.56062082 102 63 C101.195625 61.3603125 101.195625 61.3603125 100.375 59.6875 C96.00559303 54.74317106 90.36853899 51.59213475 84 50 C80.04 50 76.08 50 72 50 C71.67 65.18 71.34 80.36 71 96 C60.8 92.6 60.8 92.6 57.5625 89.625 C56.92441406 89.06039062 56.28632813 88.49578125 55.62890625 87.9140625 C51.85346316 83.47769052 51.67621682 78.68503499 51.5859375 73.07421875 C51.56657135 72.32662796 51.5472052 71.57903717 51.5272522 70.80879211 C51.46776082 68.43514194 51.42119408 66.06144246 51.375 63.6875 C51.33679211 62.07224518 51.29773875 60.45701013 51.2578125 58.84179688 C51.1620847 54.8946929 51.07794233 50.94749361 51 47 C47.64998952 45.60924547 44.80757143 44.6991855 41.1875 44.375 C40.39730469 44.30023438 39.60710937 44.22546875 38.79296875 44.1484375 C38.20128906 44.09945312 37.60960937 44.05046875 37 44 C37.33 42.68 37.66 41.36 38 40 C45.14912527 39.89763919 52.298058 39.82813591 59.44775391 39.78027344 C61.87425803 39.76029691 64.30071489 39.73310617 66.72705078 39.69824219 C100.001147 39.23248703 100.001147 39.23248703 113 50 C113.63550781 50.52464844 114.27101563 51.04929688 114.92578125 51.58984375 C121.44366147 57.52153346 125.66320383 65.49467802 126.203125 74.3203125 C126.37535129 88.29934624 123.4872748 98.51541424 114.03515625 109.2265625 C104.31596701 118.60186981 91.67628166 123.88984621 78.3125 124.375 C58.03210108 124.00665942 44.44394586 111.80086478 31 98 C28.61533484 95.376229 26.30465195 92.69402391 24 90 C22.9547669 88.80845354 21.90793445 87.61830783 20.859375 86.4296875 C14.06362744 78.67621517 7.5555791 70.7609859 1.24902344 62.60595703 C-1.78798129 58.70106706 -4.90004338 54.85496038 -8 51 C-14.70821055 56.36656844 -20.28806145 62.61667627 -26 69 C-26.66 68.67 -27.32 68.34 -28 68 C-28.06972114 60.68908243 -28.12292288 53.37823735 -28.15543652 46.06705379 C-28.1710469 42.67161698 -28.19219932 39.27640879 -28.22631836 35.88110352 C-28.26535614 31.97154541 -28.27974753 28.06207768 -28.29296875 24.15234375 C-28.30845261 22.94166733 -28.32393646 21.73099091 -28.33988953 20.48362732 C-28.34113022 14.23806985 -28.22074169 9.43573423 -25 4 C-17.70498144 -1.69011448 -8.80207898 -0.36008505 0 0 Z " class="hsm_EFD15E" style="fill:#EFD15E" transform="translate(144,48)"></path>
<path d="M0 0 C4.10335586 3.13786037 5.95376393 7.38238763 8 12 C8.4125 12.9075 8.825 13.815 9.25 14.75 C11.55252679 24.72761609 10.24983746 35.10214684 5.3125 44.0625 C0.9375 51.0625 0.9375 51.0625 -2 54 C-3.66617115 54.04063832 -5.33388095 54.042721 -7 54 C-8.25676839 55.04703565 -8.25676839 55.04703565 -8.25 57.375 C-9 60 -9 60 -11.125 61.8125 C-14.58445601 63.24140574 -17.29159398 63.21814153 -21 63 C-21 57.71823204 -21 57.71823204 -20 55 C-18.51171875 53.578125 -18.51171875 53.578125 -16.6875 52.25 C-10.96668964 47.5959801 -8.42812455 41.14062275 -7 34 C-6.24839936 26.17652063 -7.40554292 20.16725373 -10.08984375 12.8359375 C-11.46564775 8.54909756 -11.63822511 5.46757574 -11 1 C-7.29043349 -2.81867141 -4.55899906 -2.23099954 0 0 Z " class="hsm_EFCF57" style="fill:#EFCF57" transform="translate(259,102)"></path>
<path d="M0 0 C7.14912527 -0.10236081 14.298058 -0.17186409 21.44775391 -0.21972656 C23.87425803 -0.23970309 26.30071489 -0.26689383 28.72705078 -0.30175781 C62.001147 -0.76751297 62.001147 -0.76751297 75 10 C75.63550781 10.52464844 76.27101563 11.04929687 76.92578125 11.58984375 C83.46382305 17.53988179 87.73323886 25.55931343 88.16796875 34.42578125 C88.17441406 35.70839844 88.18085938 36.99101563 88.1875 38.3125 C88.20167969 39.58738281 88.21585937 40.86226562 88.23046875 42.17578125 C87.99001075 46.16575384 87.2354171 49.22538569 86 53 C85.67 53 85.34 53 85 53 C85.165 51.7625 85.33 50.525 85.5 49.25 C86.53062222 39.46678011 86.80715788 31.7782883 82 23 C81.484375 21.88625 80.96875 20.7725 80.4375 19.625 C79.11082498 17.20237605 78.21666824 15.61987295 76 14 C73.39388923 13.27802838 73.39388923 13.27802838 71 13 C70.67 13.66 70.34 14.32 70 15 C69.01 15 68.02 15 67 15 C66.62841891 20.57371639 67.0361125 24.56394151 69 29.8125 C72.35549758 39.26781284 71.8377753 47.75861791 68.421875 57.15234375 C66.08653073 61.82944808 62.74501583 65.40042168 59 69 C58.01 68.505 58.01 68.505 57 68 C57.68835938 67.30777344 57.68835938 67.30777344 58.390625 66.6015625 C65.99526422 58.5176393 68.59779784 51.04517927 68.47729492 39.97705078 C68.21493898 33.74406487 66.74672309 28.56067366 64 23 C63.46375 21.906875 62.9275 20.81375 62.375 19.6875 C54.54766792 10.83025581 45.14003019 9.80163989 34 9 C34 8.67 34 8.34 34 8 C41.94957992 7.77571718 49.27111181 8.04596958 57 10 C57.33 9.34 57.66 8.68 58 8 C57.34 8 56.68 8 56 8 C56 6.68 56 5.36 56 4 C50.61804014 3.09517952 45.4553068 2.86695558 40.00390625 2.90234375 C39.17036118 2.9037587 38.3368161 2.90517365 37.47801208 2.90663147 C34.83947014 2.91218832 32.20101591 2.9247326 29.5625 2.9375 C27.76367311 2.94252058 25.96484487 2.94708251 24.16601562 2.95117188 C19.77731042 2.96214357 15.38867004 2.97937804 11 3 C11.81259277 3.49169678 12.62518555 3.98339355 13.46240234 4.48999023 C16.35217328 7.34834458 16.58611558 8.87713309 16.64199829 12.86500549 C16.62865448 13.62240524 16.61531067 14.37980499 16.6015625 15.16015625 C16.61357193 16.33958046 16.61357193 16.33958046 16.62582397 17.54283142 C16.64887854 20.04991423 16.63943227 22.55537366 16.625 25.0625 C16.6211545 27.5728919 16.62456259 30.08256912 16.64559937 32.59288025 C16.6577048 34.15319024 16.65499211 35.71370096 16.63589478 37.27394104 C16.61840066 41.42971237 16.61840066 41.42971237 18.52099609 45.00170898 C19.00906738 45.33114502 19.49713867 45.66058105 20 46 C19.67 46.99 19.34 47.98 19 49 C14.5624422 43.70356005 13.83870963 40.02849909 13.68359375 33.26953125 C13.66281265 32.51911057 13.64203156 31.76868988 13.62062073 30.99552917 C13.55530074 28.60127816 13.49632208 26.20691861 13.4375 23.8125 C13.39429807 22.18813987 13.35068324 20.56379067 13.30664062 18.93945312 C13.19963737 14.95974629 13.09832063 10.97993042 13 7 C9.64998952 5.60924547 6.80757143 4.6991855 3.1875 4.375 C2.39730469 4.30023438 1.60710937 4.22546875 0.79296875 4.1484375 C-0.09455078 4.07496094 -0.09455078 4.07496094 -1 4 C-0.67 2.68 -0.34 1.36 0 0 Z " class="hsm_F2D568" style="fill:#F2D568" transform="translate(182,88)"></path>
<path d="M0 0 C0.66 0 1.32 0 2 0 C2.66 0.66 3.32 1.32 4 2 C4.763125 1.773125 5.52625 1.54625 6.3125 1.3125 C7.199375 1.209375 8.08625 1.10625 9 1 C12.83834709 4.07067767 16.87583161 8.47855586 19 13 C18.6328125 15.21484375 18.6328125 15.21484375 18 17 C17.34 17 16.68 17 16 17 C15.34 18.98 14.68 20.96 14 23 C9.28307688 20.80017935 5.32126982 18.04136814 2 14 C1.09501772 11.30886848 0.64964612 8.85808189 0.3515625 6.0390625 C0.23554688 5.36617188 0.11953125 4.69328125 0 4 C-0.66 3.67 -1.32 3.34 -2 3 C-1.34 2.01 -0.68 1.02 0 0 Z " class="hsm_EFD15A" style="fill:#EFD15A" transform="translate(148,103)"></path>
<path d="M0 0 C0 0.99 0 1.98 0 3 C-0.95712891 3.19916016 -0.95712891 3.19916016 -1.93359375 3.40234375 C-3.17302734 3.66724609 -3.17302734 3.66724609 -4.4375 3.9375 C-5.67306641 4.19853516 -5.67306641 4.19853516 -6.93359375 4.46484375 C-8.97661204 4.80752994 -8.97661204 4.80752994 -10 6 C-10.22976424 8.28839145 -10.39574322 10.58323836 -10.53515625 12.87890625 C-10.59962196 13.90889992 -10.59962196 13.90889992 -10.66539001 14.95970154 C-10.80211912 17.1603912 -10.93237573 19.36141087 -11.0625 21.5625 C-11.15387195 23.05145843 -11.24566333 24.54039118 -11.33789062 26.02929688 C-11.56346771 29.6859121 -11.78324029 33.34285032 -12 37 C-12.33 37 -12.66 37 -13 37 C-13.07430494 32.80081815 -13.12867413 28.60198726 -13.16479492 24.40234375 C-13.17985681 22.97454154 -13.20031062 21.5467854 -13.22631836 20.11914062 C-13.26281842 18.06368627 -13.27975166 16.00884495 -13.29296875 13.953125 C-13.3086792 12.71723633 -13.32438965 11.48134766 -13.34057617 10.20800781 C-12.97859576 6.79838589 -12.32290222 5.45418505 -10 3 C-17.51996587 2.50370839 -17.51996587 2.50370839 -24 6 C-25.03444628 9.10333883 -25.12083424 11.22876249 -25.11352539 14.48120117 C-25.11344986 15.60213669 -25.11337433 16.7230722 -25.11329651 17.87797546 C-25.10813522 19.08742325 -25.10297394 20.29687103 -25.09765625 21.54296875 C-25.0962413 22.78170242 -25.09482635 24.0204361 -25.09336853 25.29670715 C-25.08871602 28.58631537 -25.0797339 31.8758746 -25.06866455 35.16546631 C-25.05842629 38.52371623 -25.05386574 41.88197333 -25.04882812 45.24023438 C-25.03779145 51.82684212 -25.02104767 58.41341705 -25 65 C-24.34 63.35 -23.68 61.7 -23 60 C-22.01 60 -21.02 60 -20 60 C-20 59.34 -20 58.68 -20 58 C-18.02 57.505 -18.02 57.505 -16 57 C-22.15034169 65.44646925 -22.15034169 65.44646925 -26 69 C-26.66 68.67 -27.32 68.34 -28 68 C-28.06972114 60.68908243 -28.12292288 53.37823735 -28.15543652 46.06705379 C-28.1710469 42.67161698 -28.19219932 39.27640879 -28.22631836 35.88110352 C-28.26535614 31.97154541 -28.27974753 28.06207768 -28.29296875 24.15234375 C-28.30845261 22.94166733 -28.32393646 21.73099091 -28.33988953 20.48362732 C-28.34113022 14.23806985 -28.22074169 9.43573423 -25 4 C-17.70498144 -1.69011448 -8.80207898 -0.36008505 0 0 Z " class="hsm_F8E38C" style="fill:#F8E38C" transform="translate(144,48)"></path>
<path d="M0 0 C1 3 1 3 -0.1171875 5.41796875 C-8.07758911 17.96002373 -18.74746634 26.05446277 -33 30.4375 C-45.52475646 32.81426615 -58.23289844 30.89489623 -69 24 C-68.34 23.67 -67.68 23.34 -67 23 C-64.9765625 23.7421875 -64.9765625 23.7421875 -62.625 24.875 C-58.34263615 26.92308706 -54.63888504 28.06460458 -49.890625 28.31640625 C-49.13652344 28.35830078 -48.38242188 28.40019531 -47.60546875 28.44335938 C-46.43951172 28.50233398 -46.43951172 28.50233398 -45.25 28.5625 C-44.45722656 28.60568359 -43.66445312 28.64886719 -42.84765625 28.69335938 C-40.89862185 28.79902991 -38.94933252 28.89997966 -37 29 C-37 28.34 -37 27.68 -37 27 C-36.34 27 -35.68 27 -35 27 C-35.66868314 23.88667752 -35.66868314 23.88667752 -38.0625 22.8125 C-38.701875 22.544375 -39.34125 22.27625 -40 22 C-38.40084119 21.30093058 -36.79544955 20.61610532 -35.1875 19.9375 C-33.84751953 19.36322266 -33.84751953 19.36322266 -32.48046875 18.77734375 C-30 18 -30 18 -27 19 C-27.33 20.32 -27.66 21.64 -28 23 C-24.33672732 23.21548663 -21.53249889 23.19260598 -18.0625 21.9375 C-15.59028277 20.04765166 -15.59028277 20.04765166 -15.6875 16.3125 C-15.8421875 14.6728125 -15.8421875 14.6728125 -16 13 C-13.69 13.33 -11.38 13.66 -9 14 C-7.87162591 12.41906946 -6.74743482 10.83515284 -5.625 9.25 C-4.99851562 8.36828125 -4.37203125 7.4865625 -3.7265625 6.578125 C-2.28519059 4.42585021 -1.08501907 2.34539477 0 0 Z " class="hsm_F1D672" style="fill:#F1D672" transform="translate(266,141)"></path>
<path d="M0 0 C6 2 6 2 8.78515625 3.0078125 C13.222683 4.37735295 17.67325248 4.85582404 22.26953125 5.4375 C23.17058594 5.623125 24.07164062 5.80875 25 6 C25.33 6.66 25.66 7.32 26 8 C25.67 8.66 25.34 9.32 25 10 C24.34 10 23.68 10 23 10 C23 10.66 23 11.32 23 12 C5.14350797 12.55353075 5.14350797 12.55353075 -3 9 C-3.75 6.75 -3.75 6.75 -4 4 C-2.0625 1.6875 -2.0625 1.6875 0 0 Z " class="hsm_EFCE56" style="fill:#EFCE56" transform="translate(206,158)"></path>
<path d="M0 0 C1.46373047 0.01353516 1.46373047 0.01353516 2.95703125 0.02734375 C4.06111328 0.04474609 4.06111328 0.04474609 5.1875 0.0625 C4.46875 2.01171875 4.46875 2.01171875 3.1875 4.0625 C1.15625 4.64453125 1.15625 4.64453125 -1.3125 4.875 C-11.23683793 6.51952286 -18.19925354 13.95048915 -24.8125 21.0625 C-25.1425 20.4025 -25.4725 19.7425 -25.8125 19.0625 C-25.11125 18.4025 -24.41 17.7425 -23.6875 17.0625 C-20.30984511 13.7042013 -17.61371683 9.90603007 -14.8125 6.0625 C-19.2675 7.5475 -19.2675 7.5475 -23.8125 9.0625 C-17.55506227 1.82733763 -9.38546226 -0.11307786 0 0 Z " class="hsm_EFD773" style="fill:#EFD773" transform="translate(188.8125,47.9375)"></path>
<path d="M0 0 C-1.40164889 4.76560621 -4.15411474 7.95882443 -8 11 C-8.66 11 -9.32 11 -10 11 C-10.226875 11.928125 -10.45375 12.85625 -10.6875 13.8125 C-12.21799908 17.52942635 -13.39794214 18.37907396 -17 20 C-17.66 20 -18.32 20 -19 20 C-19 19.34 -19 18.68 -19 18 C-20.32 18.33 -21.64 18.66 -23 19 C-16.35793358 9.87822878 -16.35793358 9.87822878 -13 7 C-12.34 7 -11.68 7 -11 7 C-10.814375 6.401875 -10.62875 5.80375 -10.4375 5.1875 C-8.1661408 1.73108382 -4.13950126 0 0 0 Z " class="hsm_EDCF5C" style="fill:#EDCF5C" transform="translate(174,54)"></path>
<path d="M0 0 C2 0 4 0 6 0 C6.10957031 0.60585937 6.21914062 1.21171875 6.33203125 1.8359375 C7.17803755 6.30670252 8.14969648 10.56795276 9.625 14.875 C12.64387624 24.78310662 11.62157577 34.74415182 7 44 C4.56988528 47.26952458 1.93503258 50.17894927 -1 53 C-1.66 52.67 -2.32 52.34 -3 52 C-2.54109375 51.53851563 -2.0821875 51.07703125 -1.609375 50.6015625 C5.99602461 42.51683098 8.59768041 35.04384607 8.47729492 23.97485352 C8.09702877 14.93308842 4.7071634 7.56508404 0 0 Z " class="hsm_F3E090" style="fill:#F3E090" transform="translate(242,104)"></path>
<path d="M0 0 C7.14912527 -0.10236081 14.298058 -0.17186409 21.44775391 -0.21972656 C23.87425803 -0.23970309 26.30071489 -0.26689383 28.72705078 -0.30175781 C59.58711104 -0.73372243 59.58711104 -0.73372243 72 8 C71.34 8.33 70.68 8.66 70 9 C68.32111559 8.02065076 66.65661761 7.01656081 65 6 C51.29666655 0.80007436 35.44332826 1.61266875 21 1.375 C19.04946398 1.33670329 17.09894275 1.29764538 15.1484375 1.2578125 C10.43241562 1.1631258 5.71631549 1.07864789 1 1 C0.67 1.66 0.34 2.32 0 3 C0 2.01 0 1.02 0 0 Z " class="hsm_EFDA87" style="fill:#EFDA87" transform="translate(182,88)"></path>
<path d="M0 0 C6.87017933 2.95969779 11.66470482 9.35066972 14.5 16.125 C17.42368104 25.31001566 16.90978766 34.92146251 14 44 C13.67 44 13.34 44 13 44 C13.165 42.7625 13.33 41.525 13.5 40.25 C14.53235958 30.45028815 14.78638568 22.79850309 10 14 C9.566875 12.96875 9.13375 11.9375 8.6875 10.875 C6.69598153 7.48204261 4.28158077 5.09638942 1.42578125 2.41796875 C0.95527344 1.95003906 0.48476562 1.48210937 0 1 C0 0.67 0 0.34 0 0 Z " class="hsm_F2E18E" style="fill:#F2E18E" transform="translate(254,97)"></path>
<path d="M0 0 C1 3 1 3 -0.1171875 5.41796875 C-5.30948427 13.59872077 -11.27613238 20.47865997 -20 25 C-20.66 24.67 -21.32 24.34 -22 24 C-20.515 23.2265625 -20.515 23.2265625 -19 22.4375 C-18.01 21.633125 -17.02 20.82875 -16 20 C-15.49874717 16.33142278 -15.49874717 16.33142278 -16 13 C-13.69 13.33 -11.38 13.66 -9 14 C-7.87162591 12.41906946 -6.74743482 10.83515284 -5.625 9.25 C-4.99851562 8.36828125 -4.37203125 7.4865625 -3.7265625 6.578125 C-2.28519059 4.42585021 -1.08501907 2.34539477 0 0 Z " class="hsm_F3E287" style="fill:#F3E287" transform="translate(266,141)"></path>
<path d="M0 0 C-0.6796875 1.953125 -0.6796875 1.953125 -2 4 C-4.3828125 4.609375 -4.3828125 4.609375 -7.125 4.75 C-8.03507812 4.80671875 -8.94515625 4.8634375 -9.8828125 4.921875 C-10.58148438 4.94765625 -11.28015625 4.9734375 -12 5 C-11.34 4.34 -10.68 3.68 -10 3 C-15.54547751 3.39610554 -19.40361236 4.40449305 -24.23828125 7.16015625 C-26 8 -26 8 -29 8 C-19.44601953 0.81757496 -11.79567822 -0.39686394 0 0 Z " class="hsm_F4E08F" style="fill:#F4E08F" transform="translate(194,48)"></path>
<path d="M0 0 C0.70382813 0.433125 1.40765625 0.86625 2.1328125 1.3125 C10.99840081 6.31241403 18.89156822 7.70256079 28.88671875 5.30859375 C30.95830484 4.63540957 32.98728731 3.83284663 35 3 C31.2106483 7.25408352 26.18954755 8.65433475 20.62109375 9.2578125 C12.72569138 9.44484403 6.1912568 6.90272112 0 2 C0 1.34 0 0.68 0 0 Z " class="hsm_F4E190" style="fill:#F4E190" transform="translate(204,154)"></path>
<path d="M0 0 C1.32 0.33 2.64 0.66 4 1 C3.319375 1.5775 2.63875 2.155 1.9375 2.75 C0.9784375 3.86375 0.9784375 3.86375 0 5 C0.34407319 8.4407319 1.96879113 10.57718017 4.0625 13.25 C4.61035156 13.95640625 5.15820312 14.6628125 5.72265625 15.390625 C6.14417969 15.92171875 6.56570312 16.4528125 7 17 C6.67 17.66 6.34 18.32 6 19 C5.51789063 18.37351562 5.03578125 17.74703125 4.5390625 17.1015625 C3.90742188 16.28429687 3.27578125 15.46703125 2.625 14.625 C1.99851563 13.81289062 1.37203125 13.00078125 0.7265625 12.1640625 C-0.96773494 9.95776805 -0.96773494 9.95776805 -3 8 C-3.125 5.375 -3.125 5.375 -3 3 C-2.34 3 -1.68 3 -1 3 C-0.67 2.01 -0.34 1.02 0 0 Z " class="hsm_F2E280" style="fill:#F2E280" transform="translate(148,80)"></path>
<path d="M0 0 C9.96144899 -0.40999866 17.6479633 -0.00302638 26 6 C26 6.66 26 7.32 26 8 C25.4328125 7.71253906 24.865625 7.42507812 24.28125 7.12890625 C16.1537949 3.10692933 9.10602634 1.31292187 0 1 C0 0.67 0 0.34 0 0 Z " class="hsm_F0E092" style="fill:#F0E092" transform="translate(216,96)"></path>
<path d="M0 0 C0.66 0 1.32 0 2 0 C3.55078125 1.64453125 3.55078125 1.64453125 5.3125 3.8125 C7.95326296 6.93390392 10.26711964 9.19011861 14 11 C13.67 11.99 13.34 12.98 13 14 C11.38869977 12.61240749 9.78624159 11.21454377 8.1875 9.8125 C7.29417969 9.03519531 6.40085938 8.25789062 5.48046875 7.45703125 C3.1068383 5.10582881 1.56759953 2.93208816 0 0 Z " class="hsm_F8E592" style="fill:#F8E592" transform="translate(174,143)"></path>
<path d="M0 0 C2.16874252 0.50603992 3.99967627 0.99983813 6 2 C7.1875 4.9375 7.1875 4.9375 8 8 C7.67 8.66 7.34 9.32 7 10 C5.82739389 8.71372289 4.6620717 7.42080217 3.5 6.125 C2.8503125 5.40570313 2.200625 4.68640625 1.53125 3.9453125 C0 2 0 2 0 0 Z " class="hsm_F3DE80" style="fill:#F3DE80" transform="translate(142,105)"></path>
<path d="M0 0 C0.66 0.33 1.32 0.66 2 1 C-1.465 3.97 -1.465 3.97 -5 7 C-5 6.34 -5 5.68 -5 5 C-5.66 5 -6.32 5 -7 5 C-6.67 4.01 -6.34 3.02 -6 2 C-4.02 2.495 -4.02 2.495 -2 3 C-2 2.34 -2 1.68 -2 1 C-1.34 0.67 -0.68 0.34 0 0 Z " class="hsm_F0DA79" style="fill:#F0DA79" transform="translate(157,73)"></path>
<path d="M0 0 C7.48291572 6.15034169 7.48291572 6.15034169 10 10 C6.03209924 8.32127275 3.13068506 5.91722926 0 3 C0 2.01 0 1.02 0 0 Z " class="hsm_EEDB87" style="fill:#EEDB87" transform="translate(186,138)"></path>
<path d="M0 0 C2 0 4 0 6 0 C6 1.98 6 3.96 6 6 C1.125 3.375 1.125 3.375 0 0 Z " class="hsm_F2D874" style="fill:#F2D874" transform="translate(242,104)"></path>
<path d="M0 0 C0.66 0.66 1.32 1.32 2 2 C-1.96 1.67 -5.92 1.34 -10 1 C-10 0.67 -10 0.34 -10 0 C-6.31938873 -0.9464429 -3.66134991 -1.08850943 0 0 Z " class="hsm_F5DC7D" style="fill:#F5DC7D" transform="translate(235,89)"></path>
<path d="M0 0 C3.2542015 2.83430453 4.5206753 4.68607774 5 9 C2.5 6.75 2.5 6.75 0 4 C0 2.68 0 1.36 0 0 Z " class="hsm_F5E38C" style="fill:#F5E38C" transform="translate(197,128)"></path>
</svg>
